<svg xmlns="http://www.w3.org/2000/svg" version="1.1" width="337px" height="369px" style="shape-rendering:geometricPrecision; text-rendering:geometricPrecision; image-rendering:optimizeQuality; fill-rule:evenodd; clip-rule:evenodd" xmlns:xlink="http://www.w3.org/1999/xlink">
<g><path style="opacity:1" fill="#fda00a" d="M 155.5,-0.5 C 155.833,-0.5 156.167,-0.5 156.5,-0.5C 156.833,0.833333 157.167,0.833333 157.5,-0.5C 162.833,-0.5 168.167,-0.5 173.5,-0.5C 173.833,0.833333 174.167,0.833333 174.5,-0.5C 175.167,-0.5 175.833,-0.5 176.5,-0.5C 180.472,1.8093 184.806,3.64263 189.5,5C 190.381,5.7083 191.047,6.54163 191.5,7.5C 191.5,8.5 191.5,9.5 191.5,10.5C 196.421,10.1349 196.755,11.1349 192.5,13.5C 194.044,14.6224 195.377,14.289 196.5,12.5C 197.167,12.8333 197.833,13.1667 198.5,13.5C 199.173,16.1854 199.173,18.0188 198.5,19C 200.81,19.4966 203.143,19.6633 205.5,19.5C 206.398,22.3956 208.065,24.729 210.5,26.5C 211.084,29.0034 211.751,31.5034 212.5,34C 211.077,35.412 211.244,36.5787 213,37.5C 214.018,36.2941 214.518,36.6274 214.5,38.5C 214.518,40.3726 214.018,40.7059 213,39.5C 212.966,41.1796 212.799,42.6796 212.5,44C 214.764,43.3019 216.597,43.8019 218,45.5C 218.497,47.8098 218.663,50.1432 218.5,52.5C 218.167,52.5 217.833,52.5 217.5,52.5C 214.318,52.584 211.985,53.9173 210.5,56.5C 206.441,58.948 202.275,61.2813 198,63.5C 196.347,60.0736 195.513,56.4069 195.5,52.5C 195.468,49.0058 194.135,46.3392 191.5,44.5C 191.5,44.1667 191.5,43.8333 191.5,43.5C 192.47,41.0255 191.47,39.3589 188.5,38.5C 187.948,36.6693 187.948,35.0026 188.5,33.5C 185.8,32.1079 183.133,30.7745 180.5,29.5C 176.978,27.5736 173.312,25.9069 169.5,24.5C 166.36,23.3592 163.027,23.1925 159.5,24C 157.256,24.0496 155.589,24.8829 154.5,26.5C 152.167,27.8333 149.833,27.8333 147.5,26.5C 147.5,28.1667 147.5,29.8333 147.5,31.5C 145.801,31.3398 144.134,31.5065 142.5,32C 144.932,33.0875 144.598,33.5875 141.5,33.5C 141.5,35.5 141.5,37.5 141.5,39.5C 140.974,41.2303 139.974,42.5637 138.5,43.5C 136.6,46.605 134.766,49.9383 133,53.5C 132.501,57.1516 132.335,60.8183 132.5,64.5C 131.5,64.5 130.5,64.5 129.5,64.5C 128.766,63.2921 128.433,61.9587 128.5,60.5C 127.325,60.719 126.325,60.3857 125.5,59.5C 126.506,58.6043 126.506,57.9377 125.5,57.5C 122.549,58.3574 119.549,58.3574 116.5,57.5C 115.952,55.4677 114.619,54.4677 112.5,54.5C 112.413,49.4635 112.746,44.4635 113.5,39.5C 114.108,36.6733 115.108,34.0067 116.5,31.5C 117.376,31.6309 118.043,31.2975 118.5,30.5C 120.297,28.0447 121.63,25.378 122.5,22.5C 124.394,21.9524 126.06,20.9524 127.5,19.5C 128.106,16.6265 129.439,14.2932 131.5,12.5C 132.167,11.1667 133.167,10.1667 134.5,9.5C 136.027,9.57298 137.027,8.90632 137.5,7.5C 140.751,5.04308 144.418,3.37641 148.5,2.5C 150.579,2.02935 152.579,1.36268 154.5,0.5C 155.167,0.5 155.5,0.166667 155.5,-0.5 Z"/></g>
<g><path style="opacity:0.827" fill="#f6dead" d="M 152.5,-0.5 C 153.167,-0.5 153.833,-0.5 154.5,-0.5C 154.5,-0.166667 154.5,0.166667 154.5,0.5C 152.579,1.36268 150.579,2.02935 148.5,2.5C 149.59,1.14294 150.924,0.142944 152.5,-0.5 Z"/></g>
<g><path style="opacity:0.827" fill="#f7dbb9" d="M 137.5,7.5 C 137.027,8.90632 136.027,9.57298 134.5,9.5C 134.973,8.09368 135.973,7.42702 137.5,7.5 Z"/></g>
<g><path style="opacity:1" fill="#f7aa38" d="M 191.5,7.5 C 197.683,9.67915 202.349,13.6792 205.5,19.5C 203.143,19.6633 200.81,19.4966 198.5,19C 199.173,18.0188 199.173,16.1854 198.5,13.5C 197.833,13.1667 197.167,12.8333 196.5,12.5C 195.377,14.289 194.044,14.6224 192.5,13.5C 196.755,11.1349 196.421,10.1349 191.5,10.5C 191.5,9.5 191.5,8.5 191.5,7.5 Z"/></g>
<g><path style="opacity:1" fill="#f2b857" d="M 131.5,12.5 C 129.439,14.2932 128.106,16.6265 127.5,19.5C 126.06,20.9524 124.394,21.9524 122.5,22.5C 124.087,19.7318 125.92,17.0652 128,14.5C 128.816,13.1772 129.983,12.5106 131.5,12.5 Z"/></g>
<g><path style="opacity:1" fill="#f2b766" d="M 205.5,19.5 C 208.323,20.9923 209.99,23.3257 210.5,26.5C 208.065,24.729 206.398,22.3956 205.5,19.5 Z"/></g>
<g><path style="opacity:1" fill="#e2aa4b" d="M 169.5,24.5 C 164.364,24.2925 159.364,24.9592 154.5,26.5C 155.589,24.8829 157.256,24.0496 159.5,24C 163.027,23.1925 166.36,23.3592 169.5,24.5 Z"/></g>
<g><path style="opacity:0.996" fill="#efc064" d="M 122.5,22.5 C 121.63,25.378 120.297,28.0447 118.5,30.5C 118.043,31.2975 117.376,31.6309 116.5,31.5C 117.769,27.9464 119.769,24.9464 122.5,22.5 Z"/></g>
<g><path style="opacity:1" fill="#f3b357" d="M 180.5,29.5 C 183.133,30.7745 185.8,32.1079 188.5,33.5C 187.948,35.0026 187.948,36.6693 188.5,38.5C 185.862,35.5256 183.195,32.5256 180.5,29.5 Z"/></g>
<g><path style="opacity:1" fill="#f9b65a" d="M 154.5,26.5 C 149.833,30.5 145.5,34.8333 141.5,39.5C 141.5,37.5 141.5,35.5 141.5,33.5C 144.598,33.5875 144.932,33.0875 142.5,32C 144.134,31.5065 145.801,31.3398 147.5,31.5C 147.5,29.8333 147.5,28.1667 147.5,26.5C 149.833,27.8333 152.167,27.8333 154.5,26.5 Z"/></g>
<g><path style="opacity:1" fill="#f5ba6b" d="M 188.5,38.5 C 191.47,39.3589 192.47,41.0255 191.5,43.5C 190.263,42.0351 189.263,40.3684 188.5,38.5 Z"/></g>
<g><path style="opacity:1" fill="#f4a833" d="M 210.5,26.5 C 215.285,33.5863 218.619,41.4196 220.5,50C 220.361,51.301 219.695,52.1344 218.5,52.5C 218.663,50.1432 218.497,47.8098 218,45.5C 216.597,43.8019 214.764,43.3019 212.5,44C 212.799,42.6796 212.966,41.1796 213,39.5C 214.018,40.7059 214.518,40.3726 214.5,38.5C 214.518,36.6274 214.018,36.2941 213,37.5C 211.244,36.5787 211.077,35.412 212.5,34C 211.751,31.5034 211.084,29.0034 210.5,26.5 Z"/></g>
<g><path style="opacity:1" fill="#f0bb6c" d="M 191.5,44.5 C 194.135,46.3392 195.468,49.0058 195.5,52.5C 193.989,49.9949 192.655,47.3283 191.5,44.5 Z"/></g>
<g><path style="opacity:1" fill="#f1ac44" d="M 113.5,39.5 C 112.746,44.4635 112.413,49.4635 112.5,54.5C 114.619,54.4677 115.952,55.4677 116.5,57.5C 113.621,56.5638 111.288,54.8971 109.5,52.5C 110.391,47.9087 111.725,43.5754 113.5,39.5 Z"/></g>
<g><path style="opacity:0.98" fill="#ecbc78" d="M 217.5,52.5 C 215.365,54.0709 213.032,55.4043 210.5,56.5C 211.985,53.9173 214.318,52.584 217.5,52.5 Z"/></g>
<g><path style="opacity:1" fill="#f6a83b" d="M 116.5,57.5 C 119.549,58.3574 122.549,58.3574 125.5,57.5C 126.506,57.9377 126.506,58.6043 125.5,59.5C 126.325,60.3857 127.325,60.719 128.5,60.5C 128.433,61.9587 128.766,63.2921 129.5,64.5C 125,62.4174 120.666,60.0841 116.5,57.5 Z"/></g>
<g><path style="opacity:0.996" fill="#eaab47" d="M 138.5,43.5 C 135.744,50.9405 133.744,58.6072 132.5,66.5C 131.261,66.0576 130.261,65.3909 129.5,64.5C 130.5,64.5 131.5,64.5 132.5,64.5C 132.335,60.8183 132.501,57.1516 133,53.5C 134.766,49.9383 136.6,46.605 138.5,43.5 Z"/></g>
<g><path style="opacity:1" fill="#fd9f06" d="M 71.5,65.5 C 75.3186,65.414 78.9852,66.0807 82.5,67.5C 82.8039,68.1499 83.1373,68.8165 83.5,69.5C 86.0865,70.48 88.7531,70.8134 91.5,70.5C 93.0861,71.4132 94.5861,71.4132 96,70.5C 105.071,75.6201 114.238,80.6201 123.5,85.5C 123.821,87.0481 124.821,87.7148 126.5,87.5C 127.038,89.1172 127.371,90.7839 127.5,92.5C 130.953,92.2265 133.62,93.5598 135.5,96.5C 135.023,97.4776 134.357,98.3109 133.5,99C 135.23,100.852 136.396,100.686 137,98.5C 139.034,99.8621 141.201,100.862 143.5,101.5C 143.525,104.179 144.858,105.512 147.5,105.5C 147.525,108.179 148.858,109.512 151.5,109.5C 152.092,113.089 154.092,115.422 157.5,116.5C 158.488,117.795 159.488,119.128 160.5,120.5C 160.59,123.346 161.756,125.679 164,127.5C 164.651,129.235 164.485,130.902 163.5,132.5C 164.655,133.95 166.155,134.95 168,135.5C 169.667,138.916 171.167,142.416 172.5,146C 171.33,148.068 171.496,149.901 173,151.5C 173.535,149.729 174.369,149.396 175.5,150.5C 177.205,156.845 179.538,162.845 182.5,168.5C 185.326,176.122 186.659,184.122 186.5,192.5C 186.543,203.514 186.209,214.514 185.5,225.5C 185.089,233.143 183.422,240.476 180.5,247.5C 179.262,250.06 177.262,251.893 174.5,253C 176.054,255.897 175.554,258.397 173,260.5C 172.503,262.81 172.337,265.143 172.5,267.5C 171.5,267.5 170.5,267.5 169.5,267.5C 169.719,268.675 169.386,269.675 168.5,270.5C 166.323,269.496 165.989,270.162 167.5,272.5C 165.668,275.243 164.668,278.243 164.5,281.5C 164.672,282.492 164.338,283.158 163.5,283.5C 162.167,283.5 160.833,283.5 159.5,283.5C 159.762,284.978 159.429,286.311 158.5,287.5C 157.914,287.291 157.414,286.957 157,286.5C 156.505,288.473 156.338,290.473 156.5,292.5C 156.5,292.833 156.5,293.167 156.5,293.5C 155.178,293.67 154.011,293.337 153,292.5C 152.228,293.849 151.061,294.682 149.5,295C 150.973,295.71 151.64,296.876 151.5,298.5C 150.5,298.5 149.5,298.5 148.5,298.5C 148.5,299.833 148.5,301.167 148.5,302.5C 147.167,304.5 145.5,306.167 143.5,307.5C 141.234,307.859 139.401,307.192 138,305.5C 137.788,308.44 136.288,310.274 133.5,311C 134.731,312.183 134.731,313.349 133.5,314.5C 131.618,315.093 129.785,315.76 128,316.5C 127.51,317.793 127.343,319.127 127.5,320.5C 126.5,321.167 125.5,321.833 124.5,322.5C 120.517,321.572 117.85,322.905 116.5,326.5C 114.712,326.215 113.045,326.548 111.5,327.5C 105.732,330.042 100.399,333.042 95.5,336.5C 88.3592,337.28 81.6925,339.28 75.5,342.5C 73.7354,343.461 71.7354,343.795 69.5,343.5C 57.1831,344.285 44.8497,344.618 32.5,344.5C 32.5,342.833 32.5,341.167 32.5,339.5C 32.447,333.804 32.7803,328.138 33.5,322.5C 42.7563,321.693 52.0896,321.193 61.5,321C 62.056,320.617 62.3893,320.117 62.5,319.5C 63.5,318.167 64.5,318.167 65.5,319.5C 67.1172,318.962 68.7839,318.629 70.5,318.5C 71.1667,318.167 71.8333,317.833 72.5,317.5C 74.4147,317.784 76.0813,317.451 77.5,316.5C 77.8333,316.5 78.1667,316.5 78.5,316.5C 80.403,316.204 82.0697,315.537 83.5,314.5C 83.8333,314.5 84.1667,314.5 84.5,314.5C 86.403,314.204 88.0697,313.537 89.5,312.5C 91.0269,312.573 92.0269,311.906 92.5,310.5C 93.1667,310.5 93.8333,310.5 94.5,310.5C 97.394,310.444 100.061,309.61 102.5,308C 103.252,307.329 103.586,306.496 103.5,305.5C 105.027,305.573 106.027,304.906 106.5,303.5C 106.842,302.662 107.508,302.328 108.5,302.5C 110.027,302.573 111.027,301.906 111.5,300.5C 113.027,300.573 114.027,299.906 114.5,298.5C 116.404,298.262 117.738,297.262 118.5,295.5C 121.473,294.19 123.807,292.19 125.5,289.5C 128.455,288.545 130.455,286.545 131.5,283.5C 135.574,281.382 138.241,278.049 139.5,273.5C 141.446,272.965 142.446,271.632 142.5,269.5C 143.906,269.027 144.573,268.027 144.5,266.5C 146.759,265.656 147.759,263.989 147.5,261.5C 150.46,255.916 153.127,250.249 155.5,244.5C 156.79,243.942 157.623,242.942 158,241.5C 158.696,238.522 159.196,235.522 159.5,232.5C 160.373,226.137 161.373,219.803 162.5,213.5C 164.638,197.718 162.971,182.218 157.5,167C 157.164,165.97 156.497,165.47 155.5,165.5C 154.167,161.833 152.833,158.167 151.5,154.5C 151.037,151.518 150.704,148.518 150.5,145.5C 147.315,145.278 146.315,143.778 147.5,141C 146.207,140.51 144.873,140.343 143.5,140.5C 143.817,137.454 142.484,135.787 139.5,135.5C 138.167,133.833 136.833,132.167 135.5,130.5C 135.715,128.821 135.048,127.821 133.5,127.5C 133.512,124.858 132.179,123.525 129.5,123.5C 129.512,120.858 128.179,119.525 125.5,119.5C 125.512,116.858 124.179,115.525 121.5,115.5C 121.027,114.094 120.027,113.427 118.5,113.5C 117.544,111.484 116.21,109.651 114.5,108C 115.711,107.107 115.711,106.274 114.5,105.5C 111.243,104.449 107.91,103.782 104.5,103.5C 103.337,100.191 102.17,96.8573 101,93.5C 99.6106,95.2273 97.9439,96.5606 96,97.5C 92.7063,95.8608 89.7063,93.8608 87,91.5C 83.5113,92.5889 80.0113,92.5889 76.5,91.5C 71.3039,90.8608 66.3039,89.8608 61.5,88.5C 60.8166,86.8235 59.4832,86.1568 57.5,86.5C 58.3924,79.2094 58.7257,71.8761 58.5,64.5C 62.81,65.0802 67.1434,65.4135 71.5,65.5 Z"/></g>
<g><path style="opacity:0.996" fill="#edb55f" d="M 258.5,66.5 C 256.22,68.2227 253.553,68.8893 250.5,68.5C 250.811,67.5222 251.478,66.8555 252.5,66.5C 254.74,66.9308 256.74,66.9308 258.5,66.5 Z"/></g>
<g><path style="opacity:1" fill="#fd9f08" d="M 258.5,66.5 C 259.167,66.5 259.833,66.5 260.5,66.5C 264.437,66.2065 268.27,66.5399 272,67.5C 272.5,74.4921 272.666,81.4921 272.5,88.5C 271.209,88.2627 270.209,88.596 269.5,89.5C 264.5,89.4983 259.833,90.4983 255.5,92.5C 254.432,93.4345 253.099,93.7678 251.5,93.5C 246.193,93.4222 241.526,94.9222 237.5,98C 235.231,98.7581 233.064,98.5914 231,97.5C 230.508,98.549 230.674,99.549 231.5,100.5C 230.388,101.265 229.721,102.265 229.5,103.5C 226.062,105.314 222.729,107.314 219.5,109.5C 217.533,109.739 215.699,109.406 214,108.5C 212.312,109.325 212.145,110.325 213.5,111.5C 211.632,112.913 209.632,114.08 207.5,115C 208.337,116.011 208.67,117.178 208.5,118.5C 207.71,119.401 206.71,120.068 205.5,120.5C 201.455,119.059 199.622,120.393 200,124.5C 197.915,123.353 196.415,124.02 195.5,126.5C 194.859,125.007 193.859,124.007 192.5,123.5C 192.437,120.343 191.437,117.509 189.5,115C 192.277,112.827 192.11,112.327 189,113.5C 187.67,112.418 186.17,111.751 184.5,111.5C 184.5,111.167 184.5,110.833 184.5,110.5C 184.517,108.435 184.85,106.435 185.5,104.5C 185.5,103.833 185.833,103.5 186.5,103.5C 188.795,102.864 190.461,101.531 191.5,99.5C 192.911,97.086 194.911,95.4194 197.5,94.5C 199.981,94.226 201.647,92.8927 202.5,90.5C 204.632,90.4456 205.965,89.4456 206.5,87.5C 207.167,87.1667 207.833,86.8333 208.5,86.5C 210.027,86.573 211.027,85.9063 211.5,84.5C 213.027,84.573 214.027,83.9063 214.5,82.5C 215.833,81.8333 217.167,81.1667 218.5,80.5C 220.027,80.573 221.027,79.9063 221.5,78.5C 221.833,78.5 222.167,78.5 222.5,78.5C 224.153,78.3404 225.486,77.6737 226.5,76.5C 227.391,75.8902 228.391,75.5569 229.5,75.5C 232.487,74.7422 235.487,73.9089 238.5,73C 239.056,72.6174 239.389,72.1174 239.5,71.5C 239.833,71.5 240.167,71.5 240.5,71.5C 243.811,71.117 246.811,70.117 249.5,68.5C 249.833,68.5 250.167,68.5 250.5,68.5C 253.553,68.8893 256.22,68.2227 258.5,66.5 Z"/></g>
<g><path style="opacity:1" fill="#f2b255" d="M 91.5,70.5 C 88.7531,70.8134 86.0865,70.48 83.5,69.5C 83.1373,68.8165 82.8039,68.1499 82.5,67.5C 82.4346,67.0618 82.6012,66.7284 83,66.5C 85.269,68.2687 87.6023,68.9353 90,68.5C 90.7172,69.0442 91.2172,69.7109 91.5,70.5 Z"/></g>
<g><path style="opacity:1" fill="#f1c17d" d="M 249.5,68.5 C 246.811,70.117 243.811,71.117 240.5,71.5C 240.611,70.8826 240.944,70.3826 241.5,70C 244.053,69.2389 246.553,68.4056 249,67.5C 249.399,67.7284 249.565,68.0618 249.5,68.5 Z"/></g>
<g><path style="opacity:1" fill="#f1bd6c" d="M 239.5,71.5 C 239.389,72.1174 239.056,72.6174 238.5,73C 235.487,73.9089 232.487,74.7422 229.5,75.5C 231.25,73.6023 233.416,72.269 236,71.5C 237.285,71.5979 238.451,71.5979 239.5,71.5 Z"/></g>
<g><path style="opacity:0.925" fill="#f7d8af" d="M 226.5,76.5 C 225.486,77.6737 224.153,78.3404 222.5,78.5C 223.287,76.8958 224.62,76.2291 226.5,76.5 Z"/></g>
<g><path style="opacity:0.918" fill="#f1d6af" d="M 221.5,78.5 C 221.027,79.9063 220.027,80.573 218.5,80.5C 218.973,79.0937 219.973,78.427 221.5,78.5 Z"/></g>
<g><path style="opacity:1" fill="#f0a537" d="M 269.5,89.5 C 270.209,88.596 271.209,88.2627 272.5,88.5C 272.666,81.4921 272.5,74.4921 272,67.5C 268.27,66.5399 264.437,66.2065 260.5,66.5C 261.413,64.4383 262.913,64.105 265,65.5C 267.611,64.6275 269.944,63.9609 272,63.5C 273.25,72.0174 274.417,80.5174 275.5,89C 273.527,89.4955 271.527,89.6621 269.5,89.5 Z"/></g>
<g><path style="opacity:0.988" fill="#f6d6a9" d="M 214.5,82.5 C 214.027,83.9063 213.027,84.573 211.5,84.5C 211.973,83.0937 212.973,82.427 214.5,82.5 Z"/></g>
<g><path style="opacity:0.988" fill="#f3d3aa" d="M 211.5,84.5 C 211.027,85.9063 210.027,86.573 208.5,86.5C 208.973,85.0937 209.973,84.427 211.5,84.5 Z"/></g>
<g><path style="opacity:1" fill="#f0a83c" d="M 71.5,65.5 C 67.1434,65.4135 62.81,65.0802 58.5,64.5C 58.7257,71.8761 58.3924,79.2094 57.5,86.5C 59.4832,86.1568 60.8166,86.8235 61.5,88.5C 59.5328,88.2606 57.6995,88.5939 56,89.5C 56.0381,80.4508 56.8714,71.4508 58.5,62.5C 61.1496,62.3281 63.8162,62.9947 66.5,64.5C 68.6792,62.8632 70.3459,63.1965 71.5,65.5 Z"/></g>
<g><path style="opacity:0.992" fill="#fccf9b" d="M 123.5,85.5 C 124.71,85.9321 125.71,86.5987 126.5,87.5C 124.821,87.7148 123.821,87.0481 123.5,85.5 Z"/></g>
<g><path style="opacity:0.992" fill="#f2cf9e" d="M 206.5,87.5 C 205.965,89.4456 204.632,90.4456 202.5,90.5C 203.436,89.0256 204.77,88.0256 206.5,87.5 Z"/></g>
<g><path style="opacity:1" fill="#e6ac4d" d="M 269.5,89.5 C 265.058,90.9901 260.391,91.9901 255.5,92.5C 259.833,90.4983 264.5,89.4983 269.5,89.5 Z"/></g>
<g><path style="opacity:1" fill="#eebc73" d="M 202.5,90.5 C 201.647,92.8927 199.981,94.226 197.5,94.5C 198.585,92.4131 200.251,91.0798 202.5,90.5 Z"/></g>
<g><path style="opacity:1" fill="#f6a52c" d="M 76.5,91.5 C 80.0113,92.5889 83.5113,92.5889 87,91.5C 89.7063,93.8608 92.7063,95.8608 96,97.5C 97.9439,96.5606 99.6106,95.2273 101,93.5C 102.17,96.8573 103.337,100.191 104.5,103.5C 95.361,98.9274 86.0276,94.9274 76.5,91.5 Z"/></g>
<g><path style="opacity:1" fill="#f4b14c" d="M 126.5,87.5 C 132.774,91.4413 138.44,96.1079 143.5,101.5C 141.201,100.862 139.034,99.8621 137,98.5C 136.396,100.686 135.23,100.852 133.5,99C 134.357,98.3109 135.023,97.4776 135.5,96.5C 133.62,93.5598 130.953,92.2265 127.5,92.5C 127.371,90.7839 127.038,89.1172 126.5,87.5 Z"/></g>
<g><path style="opacity:1" fill="#f4b256" d="M 251.5,93.5 C 244.155,96.6234 236.822,99.9567 229.5,103.5C 229.721,102.265 230.388,101.265 231.5,100.5C 230.674,99.549 230.508,98.549 231,97.5C 233.064,98.5914 235.231,98.7581 237.5,98C 241.526,94.9222 246.193,93.4222 251.5,93.5 Z"/></g>
<g><path style="opacity:0.843" fill="#f1cd91" d="M 191.5,99.5 C 190.461,101.531 188.795,102.864 186.5,103.5C 187.579,101.457 189.246,100.124 191.5,99.5 Z"/></g>
<g><path style="opacity:1" fill="#f1b96e" d="M 143.5,101.5 C 145.167,102.5 146.5,103.833 147.5,105.5C 144.858,105.512 143.525,104.179 143.5,101.5 Z"/></g>
<g><path style="opacity:1" fill="#f7ab3d" d="M 104.5,103.5 C 107.91,103.782 111.243,104.449 114.5,105.5C 115.711,106.274 115.711,107.107 114.5,108C 116.21,109.651 117.544,111.484 118.5,113.5C 113.796,110.154 109.129,106.821 104.5,103.5 Z"/></g>
<g><path style="opacity:1" fill="#efc283" d="M 185.5,104.5 C 184.85,106.435 184.517,108.435 184.5,110.5C 181.811,108.185 182.145,106.185 185.5,104.5 Z"/></g>
<g><path style="opacity:1" fill="#efbb6e" d="M 147.5,105.5 C 149.167,106.5 150.5,107.833 151.5,109.5C 148.858,109.512 147.525,108.179 147.5,105.5 Z"/></g>
<g><path style="opacity:1" fill="#f7b65c" d="M 219.5,109.5 C 216.057,112.729 212.39,115.729 208.5,118.5C 208.67,117.178 208.337,116.011 207.5,115C 209.632,114.08 211.632,112.913 213.5,111.5C 212.145,110.325 212.312,109.325 214,108.5C 215.699,109.406 217.533,109.739 219.5,109.5 Z"/></g>
<g><path style="opacity:0.992" fill="#f6cd99" d="M 118.5,113.5 C 120.027,113.427 121.027,114.094 121.5,115.5C 119.973,115.573 118.973,114.906 118.5,113.5 Z"/></g>
<g><path style="opacity:0.996" fill="#f6c376" d="M 151.5,109.5 C 153.471,111.808 155.471,114.142 157.5,116.5C 154.092,115.422 152.092,113.089 151.5,109.5 Z"/></g>
<g><path style="opacity:1" fill="#f7ac44" d="M 184.5,111.5 C 186.17,111.751 187.67,112.418 189,113.5C 192.11,112.327 192.277,112.827 189.5,115C 191.437,117.509 192.437,120.343 192.5,123.5C 189.846,119.537 187.18,115.537 184.5,111.5 Z"/></g>
<g><path style="opacity:1" fill="#f5b664" d="M 121.5,115.5 C 124.179,115.525 125.512,116.858 125.5,119.5C 123.833,118.5 122.5,117.167 121.5,115.5 Z"/></g>
<g><path style="opacity:0.996" fill="#facd93" d="M 62.5,118.5 C 61.209,118.737 60.209,118.404 59.5,117.5C 59.4346,117.062 59.6012,116.728 60,116.5C 60.9947,117.066 61.828,117.733 62.5,118.5 Z"/></g>
<g><path style="opacity:1" fill="#fda00a" d="M 59.5,117.5 C 60.209,118.404 61.209,118.737 62.5,118.5C 64.5648,118.517 66.5648,118.85 68.5,119.5C 73.3067,123.491 78.9734,125.825 85.5,126.5C 89.2872,127.294 92.6205,128.961 95.5,131.5C 96.1293,133.997 97.796,135.33 100.5,135.5C 100.821,137.048 101.821,137.715 103.5,137.5C 103.525,140.179 104.858,141.512 107.5,141.5C 107.525,144.179 108.858,145.512 111.5,145.5C 113.984,147.8 115.984,150.467 117.5,153.5C 118.374,156.077 119.374,158.577 120.5,161C 120.355,162.226 120.022,163.393 119.5,164.5C 121.611,165.348 123.611,166.348 125.5,167.5C 125.678,170.216 126.178,172.883 127,175.5C 127.671,176.252 128.504,176.586 129.5,176.5C 131.268,181.676 132.268,187.01 132.5,192.5C 132.831,200.196 132.497,207.862 131.5,215.5C 129.587,225.018 127.253,234.351 124.5,243.5C 123.448,243.351 122.448,243.517 121.5,244C 121.004,245.996 120.004,247.663 118.5,249C 118.957,249.414 119.291,249.914 119.5,250.5C 118.271,251.281 116.938,251.781 115.5,252C 116.823,252.816 117.489,253.983 117.5,255.5C 117.167,256.5 116.5,257.167 115.5,257.5C 110.629,257.882 108.629,260.549 109.5,265.5C 107.731,268.277 105.398,270.277 102.5,271.5C 100.5,271.833 98.5,272.167 96.5,272.5C 96.6495,273.552 96.4828,274.552 96,275.5C 95.2825,274.549 94.4491,274.383 93.5,275C 94.2524,275.671 94.5858,276.504 94.5,277.5C 94.1583,278.338 93.4916,278.672 92.5,278.5C 86.3721,281.047 80.0388,283.214 73.5,285C 74.5981,285.77 74.5981,286.603 73.5,287.5C 69.0611,289.442 64.3944,290.442 59.5,290.5C 52.5,290.5 45.5,290.5 38.5,290.5C 38.5,285.167 38.5,279.833 38.5,274.5C 38.5,271.5 38.5,268.5 38.5,265.5C 44.2708,265.741 50.1041,266.074 56,266.5C 56.6891,265.643 57.5224,264.977 58.5,264.5C 60.5266,264.473 62.5266,264.473 64.5,264.5C 66.153,264.34 67.4863,263.674 68.5,262.5C 68.8333,262.5 69.1667,262.5 69.5,262.5C 71.0269,262.573 72.0269,261.906 72.5,260.5C 73.391,259.89 74.391,259.557 75.5,259.5C 77.0269,259.573 78.0269,258.906 78.5,257.5C 78.8417,256.662 79.5084,256.328 80.5,256.5C 82.0269,256.573 83.0269,255.906 83.5,254.5C 86.0892,253.581 88.0892,251.914 89.5,249.5C 89.8333,248.5 90.5,247.833 91.5,247.5C 93.5675,246.737 95.2341,245.404 96.5,243.5C 97.4287,242.311 97.762,240.978 97.5,239.5C 100.263,237.506 102.929,235.34 105.5,233C 105.043,232.586 104.709,232.086 104.5,231.5C 107.358,225.879 108.692,219.879 108.5,213.5C 108.5,213.167 108.5,212.833 108.5,212.5C 110.341,202.071 109.508,191.737 106,181.5C 105.583,180.244 104.75,179.577 103.5,179.5C 103.5,179.167 103.5,178.833 103.5,178.5C 104.258,172.089 101.591,168.089 95.5,166.5C 95.5,166.167 95.5,165.833 95.5,165.5C 95.5123,162.858 94.179,161.525 91.5,161.5C 91.5123,158.858 90.179,157.525 87.5,157.5C 86.1283,156.488 84.795,155.488 83.5,154.5C 82.319,151.331 79.9856,149.664 76.5,149.5C 74.847,149.34 73.5137,148.674 72.5,147.5C 72.5858,146.504 72.2524,145.671 71.5,145C 68.5219,144.304 65.5219,143.804 62.5,143.5C 59.4498,141.899 56.1165,140.899 52.5,140.5C 52.5,135.5 52.5,130.5 52.5,125.5C 52.3359,122.813 52.5026,120.146 53,117.5C 54.9562,117.216 57.1229,117.216 59.5,117.5 Z"/></g>
<g><path style="opacity:1" fill="#f0bb6f" d="M 125.5,119.5 C 128.179,119.525 129.512,120.858 129.5,123.5C 127.833,122.5 126.5,121.167 125.5,119.5 Z"/></g>
<g><path style="opacity:1" fill="#f5dbb1" d="M 263.5,120.5 C 262.081,121.451 260.415,121.784 258.5,121.5C 259.878,120.766 261.378,120.099 263,119.5C 263.399,119.728 263.565,120.062 263.5,120.5 Z"/></g>
<g><path style="opacity:1" fill="#f1b254" d="M 85.5,126.5 C 78.9734,125.825 73.3067,123.491 68.5,119.5C 68.4346,119.062 68.6012,118.728 69,118.5C 71.269,120.269 73.6023,120.935 76,120.5C 77.46,122.422 79.1267,123.089 81,122.5C 82.3968,124.07 83.8968,125.404 85.5,126.5 Z"/></g>
<g><path style="opacity:0.992" fill="#f9d9b7" d="M 255.5,122.5 C 254.486,123.674 253.153,124.34 251.5,124.5C 252.287,122.896 253.62,122.229 255.5,122.5 Z"/></g>
<g><path style="opacity:1" fill="#eeba71" d="M 129.5,123.5 C 132.179,123.525 133.512,124.858 133.5,127.5C 131.833,126.5 130.5,125.167 129.5,123.5 Z"/></g>
<g><path style="opacity:1" fill="#f5ac42" d="M 205.5,120.5 C 202.507,123.801 199.507,127.135 196.5,130.5C 194.384,128.6 193.051,126.267 192.5,123.5C 193.859,124.007 194.859,125.007 195.5,126.5C 196.415,124.02 197.915,123.353 200,124.5C 199.622,120.393 201.455,119.059 205.5,120.5 Z"/></g>
<g><path style="opacity:1" fill="#f2cb8e" d="M 133.5,127.5 C 135.048,127.821 135.715,128.821 135.5,130.5C 134.599,129.71 133.932,128.71 133.5,127.5 Z"/></g>
<g><path style="opacity:1" fill="#eba639" d="M 270.5,144.5 C 270.611,143.883 270.944,143.383 271.5,143C 273.81,142.503 276.143,142.337 278.5,142.5C 277.411,134.888 276.745,127.221 276.5,119.5C 274.5,119.5 272.5,119.5 270.5,119.5C 271.172,118.733 272.005,118.066 273,117.5C 274.356,118.38 275.856,118.714 277.5,118.5C 278.529,126.702 279.529,134.869 280.5,143C 277.146,143.455 273.813,143.955 270.5,144.5 Z"/></g>
<g><path style="opacity:0.992" fill="#f2d5ab" d="M 242.5,128.5 C 242.027,129.906 241.027,130.573 239.5,130.5C 239.973,129.094 240.973,128.427 242.5,128.5 Z"/></g>
<g><path style="opacity:0.988" fill="#f3ce93" d="M 237.5,131.5 C 236.965,133.446 235.632,134.446 233.5,134.5C 234.436,133.026 235.77,132.026 237.5,131.5 Z"/></g>
<g><path style="opacity:0.988" fill="#efbd71" d="M 95.5,131.5 C 97.3885,132.604 99.0552,133.937 100.5,135.5C 97.796,135.33 96.1293,133.997 95.5,131.5 Z"/></g>
<g><path style="opacity:0.996" fill="#e8a73a" d="M 52.5,125.5 C 52.5,130.5 52.5,135.5 52.5,140.5C 56.1165,140.899 59.4498,141.899 62.5,143.5C 58.5784,143.155 54.7451,142.488 51,141.5C 50.8787,135.997 51.3787,130.663 52.5,125.5 Z"/></g>
<g><path style="opacity:1" fill="#f2ca92" d="M 100.5,135.5 C 101.71,135.932 102.71,136.599 103.5,137.5C 101.821,137.715 100.821,137.048 100.5,135.5 Z"/></g>
<g><path style="opacity:1" fill="#f3b663" d="M 139.5,135.5 C 142.484,135.787 143.817,137.454 143.5,140.5C 141.937,139.055 140.604,137.389 139.5,135.5 Z"/></g>
<g><path style="opacity:0.984" fill="#f3c98e" d="M 233.5,134.5 C 232.089,136.914 230.089,138.581 227.5,139.5C 228.911,137.086 230.911,135.419 233.5,134.5 Z"/></g>
<g><path style="opacity:1" fill="#eebb6d" d="M 103.5,137.5 C 105.167,138.5 106.5,139.833 107.5,141.5C 104.858,141.512 103.525,140.179 103.5,137.5 Z"/></g>
<g><path style="opacity:0.984" fill="#f7d09d" d="M 227.5,139.5 C 227.179,141.048 226.179,141.715 224.5,141.5C 225.29,140.599 226.29,139.932 227.5,139.5 Z"/></g>
<g><path style="opacity:1" fill="#edad46" d="M 62.5,143.5 C 65.5219,143.804 68.5219,144.304 71.5,145C 72.2524,145.671 72.5858,146.504 72.5,147.5C 69.0111,146.342 65.6777,145.009 62.5,143.5 Z"/></g>
<g><path style="opacity:1" fill="#f4ba6b" d="M 107.5,141.5 C 109.167,142.5 110.5,143.833 111.5,145.5C 108.858,145.512 107.525,144.179 107.5,141.5 Z"/></g>
<g><path style="opacity:0.996" fill="#f3b764" d="M 269.5,144.5 C 267.786,145.738 265.786,146.405 263.5,146.5C 264.99,144.72 266.99,144.054 269.5,144.5 Z"/></g>
<g><path style="opacity:1" fill="#f4ad45" d="M 143.5,140.5 C 144.873,140.343 146.207,140.51 147.5,141C 146.315,143.778 147.315,145.278 150.5,145.5C 150.704,148.518 151.037,151.518 151.5,154.5C 150.326,153.486 149.66,152.153 149.5,150.5C 149.715,148.821 149.048,147.821 147.5,147.5C 145.917,145.337 144.584,143.004 143.5,140.5 Z"/></g>
<g><path style="opacity:1" fill="#f2b14b" d="M 263.5,146.5 C 260.995,148.011 258.328,149.345 255.5,150.5C 255.5,149.167 255.5,147.833 255.5,146.5C 258.167,146.5 260.833,146.5 263.5,146.5 Z"/></g>
<g><path style="opacity:1" fill="#f1c88b" d="M 147.5,147.5 C 149.048,147.821 149.715,148.821 149.5,150.5C 148.599,149.71 147.932,148.71 147.5,147.5 Z"/></g>
<g><path style="opacity:1" fill="#f1a939" d="M 160.5,120.5 C 171.035,134.912 178.368,150.912 182.5,168.5C 179.538,162.845 177.205,156.845 175.5,150.5C 174.369,149.396 173.535,149.729 173,151.5C 171.496,149.901 171.33,148.068 172.5,146C 171.167,142.416 169.667,138.916 168,135.5C 166.155,134.95 164.655,133.95 163.5,132.5C 164.485,130.902 164.651,129.235 164,127.5C 161.756,125.679 160.59,123.346 160.5,120.5 Z"/></g>
<g><path style="opacity:1" fill="#f3be67" d="M 224.5,142.5 C 223.193,144.482 221.859,146.482 220.5,148.5C 219.675,149.386 218.675,149.719 217.5,149.5C 218.836,147.99 220.003,146.323 221,144.5C 221.816,143.177 222.983,142.511 224.5,142.5 Z"/></g>
<g><path style="opacity:1" fill="#f2b565" d="M 76.5,149.5 C 79.9856,149.664 82.319,151.331 83.5,154.5C 80.9528,153.066 78.6195,151.4 76.5,149.5 Z"/></g>
<g><path style="opacity:1" fill="#f6bc68" d="M 255.5,150.5 C 252.869,152.153 250.203,153.819 247.5,155.5C 247.5,154.5 247.5,153.5 247.5,152.5C 250.025,151.36 252.692,150.693 255.5,150.5 Z"/></g>
<g><path style="opacity:0.996" fill="#f2bd69" d="M 217.5,149.5 C 216.972,152.688 215.305,155.021 212.5,156.5C 213.786,153.883 215.453,151.55 217.5,149.5 Z"/></g>
<g><path style="opacity:1" fill="#f0ba72" d="M 87.5,157.5 C 90.179,157.525 91.5123,158.858 91.5,161.5C 89.8333,160.5 88.5,159.167 87.5,157.5 Z"/></g>
<g><path style="opacity:0.478" fill="#fbd7a3" d="M 212.5,156.5 C 212.573,158.027 211.906,159.027 210.5,159.5C 210.427,157.973 211.094,156.973 212.5,156.5 Z"/></g>
<g><path style="opacity:1" fill="#f9bf71" d="M 243.5,159.5 C 242.5,161.167 241.167,162.5 239.5,163.5C 238.176,160.205 239.509,158.872 243.5,159.5 Z"/></g>
<g><path style="opacity:1" fill="#f4b966" d="M 91.5,161.5 C 94.179,161.525 95.5123,162.858 95.5,165.5C 93.8333,164.5 92.5,163.167 91.5,161.5 Z"/></g>
<g><path style="opacity:1" fill="#f6aa40" d="M 117.5,153.5 C 121.174,157.507 123.841,162.173 125.5,167.5C 123.611,166.348 121.611,165.348 119.5,164.5C 120.022,163.393 120.355,162.226 120.5,161C 119.374,158.577 118.374,156.077 117.5,153.5 Z"/></g>
<g><path style="opacity:1" fill="#f5b656" d="M 239.5,163.5 C 236.729,167.39 233.729,171.057 230.5,174.5C 230.5,172.5 230.5,170.5 230.5,168.5C 231.833,168.5 233.167,168.5 234.5,168.5C 233.457,163.536 235.124,161.869 239.5,163.5 Z"/></g>
<g><path style="opacity:1" fill="#f4ae47" d="M 95.5,166.5 C 101.591,168.089 104.258,172.089 103.5,178.5C 100.846,174.537 98.1798,170.537 95.5,166.5 Z"/></g>
<g><path style="opacity:1" fill="#fd9f05" d="M 63.5,175.5 C 63.8333,175.5 64.1667,175.5 64.5,175.5C 64.5,176.5 64.5,177.5 64.5,178.5C 66.2161,178.629 67.8828,178.962 69.5,179.5C 69.5246,182.179 70.858,183.512 73.5,183.5C 73.5,183.833 73.5,184.167 73.5,184.5C 74.2701,188.771 75.7701,192.771 78,196.5C 78.6667,201.167 78.6667,205.833 78,210.5C 76.2759,215.328 74.4426,219.995 72.5,224.5C 71.5,224.5 70.5,224.5 69.5,224.5C 69.5,226.167 69.5,227.833 69.5,229.5C 68.8333,229.833 68.1667,230.167 67.5,230.5C 66.0695,230.579 64.7362,230.246 63.5,229.5C 62.6143,230.325 62.281,231.325 62.5,232.5C 56.0506,234.778 49.3839,236.111 42.5,236.5C 43.8893,228.776 44.8893,221.109 45.5,213.5C 45.8333,213.5 46.1667,213.5 46.5,213.5C 48.153,213.34 49.4863,212.674 50.5,211.5C 53.8595,212.21 55.6929,210.876 56,207.5C 56.6667,205.5 56.6667,203.5 56,201.5C 55.3292,200.748 54.4959,200.414 53.5,200.5C 52.0442,197.465 49.8775,196.131 47,196.5C 45.8118,195.437 45.3118,194.103 45.5,192.5C 46.5585,191.4 47.3918,190.066 48,188.5C 48.4994,182.843 48.6661,177.176 48.5,171.5C 53.5856,172.545 58.5856,173.878 63.5,175.5 Z"/></g>
<g><path style="opacity:1" fill="#eda93f" d="M 210.5,159.5 C 212.257,171.423 213.257,183.423 213.5,195.5C 212.317,185.235 210.65,174.901 208.5,164.5C 208.436,162.443 209.102,160.777 210.5,159.5 Z"/></g>
<g><path style="opacity:0.998" fill="#ebba6c" d="M 283.5,174.5 C 283.167,174.5 282.833,174.5 282.5,174.5C 278.866,173.242 275.2,173.242 271.5,174.5C 271.611,173.883 271.944,173.383 272.5,173C 274.101,172.727 275.601,172.227 277,171.5C 278.779,172.479 280.445,172.146 282,170.5C 282.41,171.901 282.91,173.234 283.5,174.5 Z"/></g>
<g><path style="opacity:1" fill="#f1ad4b" d="M 125.5,167.5 C 127.204,170.256 128.537,173.256 129.5,176.5C 128.504,176.586 127.671,176.252 127,175.5C 126.178,172.883 125.678,170.216 125.5,167.5 Z"/></g>
<g><path style="opacity:1" fill="#fc9f08" d="M 282.5,174.5 C 282.5,181.833 282.5,189.167 282.5,196.5C 280.473,196.338 278.473,196.505 276.5,197C 277.38,198.356 277.714,199.856 277.5,201.5C 275.855,206.563 277.355,210.563 282,213.5C 283.164,213.835 284.497,213.835 286,213.5C 287.225,218.085 287.725,222.752 287.5,227.5C 287.5,231.167 287.5,234.833 287.5,238.5C 278.467,237.747 270.133,235.081 262.5,230.5C 262.512,227.858 261.179,226.525 258.5,226.5C 258.859,222.869 257.525,220.202 254.5,218.5C 254.279,215.933 253.612,213.599 252.5,211.5C 250.802,203.607 251.802,195.94 255.5,188.5C 257.997,187.871 259.33,186.204 259.5,183.5C 261.833,183.167 263.167,181.833 263.5,179.5C 266.831,179.169 269.164,177.503 270.5,174.5C 270.833,174.5 271.167,174.5 271.5,174.5C 275.2,173.242 278.866,173.242 282.5,174.5 Z"/></g>
<g><path style="opacity:0.996" fill="#eeb961" d="M 64.5,175.5 C 66.3885,176.604 68.0552,177.937 69.5,179.5C 67.8828,178.962 66.2161,178.629 64.5,178.5C 64.5,177.5 64.5,176.5 64.5,175.5 Z"/></g>
<g><path style="opacity:0.996" fill="#f4c37d" d="M 270.5,174.5 C 269.164,177.503 266.831,179.169 263.5,179.5C 265.296,177.1 267.63,175.433 270.5,174.5 Z"/></g>
<g><path style="opacity:1" fill="#f2be76" d="M 230.5,175.5 C 229.486,177.574 228.486,179.574 227.5,181.5C 227.031,178.607 228.031,176.607 230.5,175.5 Z"/></g>
<g><path style="opacity:1" fill="#f0bc6c" d="M 69.5,179.5 C 71.1667,180.5 72.5,181.833 73.5,183.5C 70.858,183.512 69.5246,182.179 69.5,179.5 Z"/></g>
<g><path style="opacity:1" fill="#f1c46f" d="M 263.5,179.5 C 263.167,181.833 261.833,183.167 259.5,183.5C 260.167,181.5 261.5,180.167 263.5,179.5 Z"/></g>
<g><path style="opacity:1" fill="#edaa44" d="M 63.5,175.5 C 58.5856,173.878 53.5856,172.545 48.5,171.5C 48.6661,177.176 48.4994,182.843 48,188.5C 47.3918,190.066 46.5585,191.4 45.5,192.5C 46.1706,184.795 47.1706,177.128 48.5,169.5C 53.9033,170.754 58.9033,172.754 63.5,175.5 Z"/></g>
<g><path style="opacity:0.992" fill="#edb961" d="M 259.5,183.5 C 259.33,186.204 257.997,187.871 255.5,188.5C 256.604,186.611 257.937,184.945 259.5,183.5 Z"/></g>
<g><path style="opacity:1" fill="#f0a83d" d="M 282.5,174.5 C 282.833,174.5 283.167,174.5 283.5,174.5C 284.111,181.832 284.278,189.165 284,196.5C 281.672,197.999 279.505,199.666 277.5,201.5C 277.714,199.856 277.38,198.356 276.5,197C 278.473,196.505 280.473,196.338 282.5,196.5C 282.5,189.167 282.5,181.833 282.5,174.5 Z"/></g>
<g><path style="opacity:1" fill="#e6a947" d="M 155.5,165.5 C 156.497,165.47 157.164,165.97 157.5,167C 162.971,182.218 164.638,197.718 162.5,213.5C 163.435,196.975 161.102,180.975 155.5,165.5 Z"/></g>
<g><path style="opacity:1" fill="#e6a433" d="M 213.5,195.5 C 214.865,205.211 214.531,214.877 212.5,224.5C 213.029,214.842 213.362,205.175 213.5,195.5 Z"/></g>
<g><path style="opacity:0.996" fill="#e7a532" d="M 186.5,192.5 C 187.166,196.319 187.499,200.319 187.5,204.5C 187.582,211.719 186.915,218.719 185.5,225.5C 186.209,214.514 186.543,203.514 186.5,192.5 Z"/></g>
<g><path style="opacity:0.996" fill="#edad44" d="M 53.5,200.5 C 54.4959,200.414 55.3292,200.748 56,201.5C 56.6667,203.5 56.6667,205.5 56,207.5C 55.6929,210.876 53.8595,212.21 50.5,211.5C 54.6242,208.489 55.6242,204.822 53.5,200.5 Z"/></g>
<g><path style="opacity:1" fill="#e6a841" d="M 103.5,179.5 C 104.75,179.577 105.583,180.244 106,181.5C 109.508,191.737 110.341,202.071 108.5,212.5C 109.517,201.049 107.85,190.049 103.5,179.5 Z"/></g>
<g><path style="opacity:0.992" fill="#efd5b5" d="M 50.5,211.5 C 49.4863,212.674 48.153,213.34 46.5,213.5C 47.287,211.896 48.6203,211.229 50.5,211.5 Z"/></g>
<g><path style="opacity:1" fill="#e8b766" d="M 252.5,211.5 C 253.612,213.599 254.279,215.933 254.5,218.5C 252.837,216.562 252.171,214.228 252.5,211.5 Z"/></g>
<g><path style="opacity:1" fill="#f0b04e" d="M 73.5,184.5 C 76.3567,187.546 78.19,191.213 79,195.5C 81.7097,208.683 78.543,220.016 69.5,229.5C 69.5,227.833 69.5,226.167 69.5,224.5C 70.5,224.5 71.5,224.5 72.5,224.5C 74.4426,219.995 76.2759,215.328 78,210.5C 78.6667,205.833 78.6667,201.167 78,196.5C 75.7701,192.771 74.2701,188.771 73.5,184.5 Z"/></g>
<g><path style="opacity:1" fill="#f1b151" d="M 254.5,218.5 C 257.525,220.202 258.859,222.869 258.5,226.5C 256.127,224.421 254.794,221.754 254.5,218.5 Z"/></g>
<g><path style="opacity:1" fill="#eda837" d="M 222.5,211.5 C 223.859,218.249 225.859,224.916 228.5,231.5C 226.917,230.064 225.417,228.398 224,226.5C 222.84,221.566 222.34,216.566 222.5,211.5 Z"/></g>
<g><path style="opacity:1" fill="#eeaa42" d="M 132.5,192.5 C 135.361,210.335 132.694,227.335 124.5,243.5C 127.253,234.351 129.587,225.018 131.5,215.5C 132.497,207.862 132.831,200.196 132.5,192.5 Z"/></g>
<g><path style="opacity:1" fill="#fd9f08" d="M 270.5,119.5 C 272.5,119.5 274.5,119.5 276.5,119.5C 276.745,127.221 277.411,134.888 278.5,142.5C 276.143,142.337 273.81,142.503 271.5,143C 270.944,143.383 270.611,143.883 270.5,144.5C 270.167,144.5 269.833,144.5 269.5,144.5C 266.99,144.054 264.99,144.72 263.5,146.5C 260.833,146.5 258.167,146.5 255.5,146.5C 255.5,147.833 255.5,149.167 255.5,150.5C 252.692,150.693 250.025,151.36 247.5,152.5C 247.5,153.5 247.5,154.5 247.5,155.5C 246.5,157.167 245.167,158.5 243.5,159.5C 239.509,158.872 238.176,160.205 239.5,163.5C 235.124,161.869 233.457,163.536 234.5,168.5C 233.167,168.5 231.833,168.5 230.5,168.5C 230.5,170.5 230.5,172.5 230.5,174.5C 230.5,174.833 230.5,175.167 230.5,175.5C 228.031,176.607 227.031,178.607 227.5,181.5C 223.896,191.125 222.229,201.125 222.5,211.5C 222.34,216.566 222.84,221.566 224,226.5C 225.417,228.398 226.917,230.064 228.5,231.5C 230.417,234.331 232.083,237.331 233.5,240.5C 233.67,243.204 235.003,244.871 237.5,245.5C 237.525,248.179 238.858,249.512 241.5,249.5C 241.525,252.179 242.858,253.512 245.5,253.5C 245.787,256.484 247.454,257.817 250.5,257.5C 250.238,258.978 250.571,260.311 251.5,261.5C 252.086,261.291 252.586,260.957 253,260.5C 257.328,263.665 262.161,265.331 267.5,265.5C 267.833,265.5 268.167,265.5 268.5,265.5C 269.058,266.79 270.058,267.623 271.5,268C 278.185,269.176 284.852,269.343 291.5,268.5C 292.616,275.646 293.283,282.98 293.5,290.5C 286.254,291.464 278.92,291.797 271.5,291.5C 269.585,291.784 267.919,291.451 266.5,290.5C 262.61,289.015 258.61,287.515 254.5,286C 255.711,285.107 255.711,284.274 254.5,283.5C 252.253,284.374 249.92,284.708 247.5,284.5C 244.243,283.231 241.243,281.564 238.5,279.5C 237.008,276.677 234.674,275.01 231.5,274.5C 231.027,273.094 230.027,272.427 228.5,272.5C 228.512,269.858 227.179,268.525 224.5,268.5C 224.512,265.858 223.179,264.525 220.5,264.5C 220.512,261.858 219.179,260.525 216.5,260.5C 216.5,260.167 216.5,259.833 216.5,259.5C 216.373,254.572 214.206,250.905 210,248.5C 209.503,246.19 209.337,243.857 209.5,241.5C 209.98,235.614 210.98,229.948 212.5,224.5C 214.531,214.877 214.865,205.211 213.5,195.5C 213.257,183.423 212.257,171.423 210.5,159.5C 211.906,159.027 212.573,158.027 212.5,156.5C 215.305,155.021 216.972,152.688 217.5,149.5C 218.675,149.719 219.675,149.386 220.5,148.5C 221.859,146.482 223.193,144.482 224.5,142.5C 224.5,142.167 224.5,141.833 224.5,141.5C 226.179,141.715 227.179,141.048 227.5,139.5C 230.089,138.581 232.089,136.914 233.5,134.5C 235.632,134.446 236.965,133.446 237.5,131.5C 237.842,130.662 238.508,130.328 239.5,130.5C 241.027,130.573 242.027,129.906 242.5,128.5C 245.378,126.895 248.378,125.561 251.5,124.5C 253.153,124.34 254.486,123.674 255.5,122.5C 256.209,121.596 257.209,121.263 258.5,121.5C 260.415,121.784 262.081,121.451 263.5,120.5C 264.721,119.972 265.887,119.305 267,118.5C 268.011,119.337 269.178,119.67 270.5,119.5 Z"/></g>
<g><path style="opacity:1" fill="#f7b96f" d="M 258.5,226.5 C 261.179,226.525 262.512,227.858 262.5,230.5C 260.833,229.5 259.5,228.167 258.5,226.5 Z"/></g>
<g><path style="opacity:1" fill="#f2ab3f" d="M 108.5,213.5 C 108.692,219.879 107.358,225.879 104.5,231.5C 104.709,232.086 105.043,232.586 105.5,233C 102.929,235.34 100.263,237.506 97.5,239.5C 102.746,231.409 106.412,222.743 108.5,213.5 Z"/></g>
<g><path style="opacity:1" fill="#e7af4e" d="M 287.5,227.5 C 288.483,231.298 288.817,235.298 288.5,239.5C 278.526,239.852 269.859,236.852 262.5,230.5C 270.133,235.081 278.467,237.747 287.5,238.5C 287.5,234.833 287.5,231.167 287.5,227.5 Z"/></g>
<g><path style="opacity:1" fill="#f1ab40" d="M 45.5,213.5 C 44.8893,221.109 43.8893,228.776 42.5,236.5C 49.3839,236.111 56.0506,234.778 62.5,232.5C 62.281,231.325 62.6143,230.325 63.5,229.5C 64.7362,230.246 66.0695,230.579 67.5,230.5C 64.299,233.937 60.299,236.104 55.5,237C 50.821,237.65 46.321,238.15 42,238.5C 41.9726,229.773 42.8059,221.107 44.5,212.5C 45.1067,212.624 45.44,212.957 45.5,213.5 Z"/></g>
<g><path style="opacity:1" fill="#ecab44" d="M 159.5,232.5 C 159.196,235.522 158.696,238.522 158,241.5C 157.623,242.942 156.79,243.942 155.5,244.5C 156.542,240.303 157.875,236.303 159.5,232.5 Z"/></g>
<g><path style="opacity:1" fill="#f1be68" d="M 97.5,239.5 C 97.762,240.978 97.4287,242.311 96.5,243.5C 95.2341,245.404 93.5675,246.737 91.5,247.5C 93.1468,244.527 95.1468,241.86 97.5,239.5 Z"/></g>
<g><path style="opacity:0.996" fill="#f0b86d" d="M 233.5,240.5 C 235.063,241.945 236.396,243.611 237.5,245.5C 235.003,244.871 233.67,243.204 233.5,240.5 Z"/></g>
<g><path style="opacity:1" fill="#f7af4c" d="M 124.5,243.5 C 122.668,247.836 120.335,251.836 117.5,255.5C 117.489,253.983 116.823,252.816 115.5,252C 116.938,251.781 118.271,251.281 119.5,250.5C 119.291,249.914 118.957,249.414 118.5,249C 120.004,247.663 121.004,245.996 121.5,244C 122.448,243.517 123.448,243.351 124.5,243.5 Z"/></g>
<g><path style="opacity:1" fill="#f2bc6d" d="M 237.5,245.5 C 239.167,246.5 240.5,247.833 241.5,249.5C 238.858,249.512 237.525,248.179 237.5,245.5 Z"/></g>
<g><path style="opacity:1" fill="#f1b352" d="M 209.5,241.5 C 209.337,243.857 209.503,246.19 210,248.5C 214.206,250.905 216.373,254.572 216.5,259.5C 210.684,254.583 208.351,248.583 209.5,241.5 Z"/></g>
<g><path style="opacity:0.988" fill="#efc78e" d="M 89.5,249.5 C 88.0892,251.914 86.0892,253.581 83.5,254.5C 84.9108,252.086 86.9108,250.419 89.5,249.5 Z"/></g>
<g><path style="opacity:1" fill="#eeb86d" d="M 241.5,249.5 C 243.167,250.5 244.5,251.833 245.5,253.5C 242.858,253.512 241.525,252.179 241.5,249.5 Z"/></g>
<g><path style="opacity:0.996" fill="#f2c990" d="M 83.5,254.5 C 83.0269,255.906 82.0269,256.573 80.5,256.5C 80.9731,255.094 81.9731,254.427 83.5,254.5 Z"/></g>
<g><path style="opacity:1" fill="#f1b761" d="M 245.5,253.5 C 247.754,254.124 249.421,255.457 250.5,257.5C 247.454,257.817 245.787,256.484 245.5,253.5 Z"/></g>
<g><path style="opacity:0.988" fill="#f2d5b0" d="M 78.5,257.5 C 78.0269,258.906 77.0269,259.573 75.5,259.5C 75.9731,258.094 76.9731,257.427 78.5,257.5 Z"/></g>
<g><path style="opacity:1" fill="#f2ac40" d="M 180.5,247.5 C 179.305,252.288 177.805,256.955 176,261.5C 175.059,263.727 173.892,265.727 172.5,267.5C 172.337,265.143 172.503,262.81 173,260.5C 175.554,258.397 176.054,255.897 174.5,253C 177.262,251.893 179.262,250.06 180.5,247.5 Z"/></g>
<g><path style="opacity:1" fill="#f2b14b" d="M 250.5,257.5 C 255.204,259.934 260.037,262.268 265,264.5C 266.159,263.434 266.992,263.767 267.5,265.5C 262.161,265.331 257.328,263.665 253,260.5C 252.586,260.957 252.086,261.291 251.5,261.5C 250.571,260.311 250.238,258.978 250.5,257.5 Z"/></g>
<g><path style="opacity:0.988" fill="#f2d4a9" d="M 72.5,260.5 C 72.0269,261.906 71.0269,262.573 69.5,262.5C 69.9731,261.094 70.9731,260.427 72.5,260.5 Z"/></g>
<g><path style="opacity:1" fill="#f9b052" d="M 115.5,257.5 C 113.679,260.274 111.679,262.941 109.5,265.5C 108.629,260.549 110.629,257.882 115.5,257.5 Z"/></g>
<g><path style="opacity:1" fill="#f4bb6b" d="M 216.5,260.5 C 219.179,260.525 220.512,261.858 220.5,264.5C 218.833,263.5 217.5,262.167 216.5,260.5 Z"/></g>
<g><path style="opacity:0.996" fill="#f8d7a9" d="M 68.5,262.5 C 67.4863,263.674 66.153,264.34 64.5,264.5C 65.287,262.896 66.6203,262.229 68.5,262.5 Z"/></g>
<g><path style="opacity:1" fill="#f5b766" d="M 147.5,261.5 C 147.759,263.989 146.759,265.656 144.5,266.5C 145.11,264.566 146.11,262.899 147.5,261.5 Z"/></g>
<g><path style="opacity:1" fill="#f3bb6b" d="M 220.5,264.5 C 223.179,264.525 224.512,265.858 224.5,268.5C 222.833,267.5 221.5,266.167 220.5,264.5 Z"/></g>
<g><path style="opacity:0.322" fill="#fcd9a3" d="M 144.5,266.5 C 144.573,268.027 143.906,269.027 142.5,269.5C 142.427,267.973 143.094,266.973 144.5,266.5 Z"/></g>
<g><path style="opacity:1" fill="#f0b14f" d="M 291.5,268.5 C 284.852,269.343 278.185,269.176 271.5,268C 270.058,267.623 269.058,266.79 268.5,265.5C 268.435,265.062 268.601,264.728 269,264.5C 270.079,266.394 271.413,266.727 273,265.5C 275.928,267.038 279.094,267.704 282.5,267.5C 285.223,267.449 287.89,267.116 290.5,266.5C 291.298,266.957 291.631,267.624 291.5,268.5 Z"/></g>
<g><path style="opacity:1" fill="#f2bb6e" d="M 224.5,268.5 C 227.179,268.525 228.512,269.858 228.5,272.5C 226.833,271.5 225.5,270.167 224.5,268.5 Z"/></g>
<g><path style="opacity:0.988" fill="#f6cf96" d="M 142.5,269.5 C 142.446,271.632 141.446,272.965 139.5,273.5C 140.026,271.77 141.026,270.436 142.5,269.5 Z"/></g>
<g><path style="opacity:1" fill="#f6b864" d="M 102.5,271.5 C 100.2,273.984 97.5331,275.984 94.5,277.5C 94.5858,276.504 94.2524,275.671 93.5,275C 94.4491,274.383 95.2825,274.549 96,275.5C 96.4828,274.552 96.6495,273.552 96.5,272.5C 98.5,272.167 100.5,271.833 102.5,271.5 Z"/></g>
<g><path style="opacity:0.988" fill="#e9c794" d="M 228.5,272.5 C 230.027,272.427 231.027,273.094 231.5,274.5C 229.973,274.573 228.973,273.906 228.5,272.5 Z"/></g>
<g><path style="opacity:1" fill="#f2c380" d="M 231.5,274.5 C 234.674,275.01 237.008,276.677 238.5,279.5C 235.883,278.214 233.55,276.547 231.5,274.5 Z"/></g>
<g><path style="opacity:0.996" fill="#f6ae45" d="M 172.5,267.5 C 170.336,272.5 167.669,277.167 164.5,281.5C 164.668,278.243 165.668,275.243 167.5,272.5C 165.989,270.162 166.323,269.496 168.5,270.5C 169.386,269.675 169.719,268.675 169.5,267.5C 170.5,267.5 171.5,267.5 172.5,267.5 Z"/></g>
<g><path style="opacity:1" fill="#f4b457" d="M 92.5,278.5 C 86.8618,282.818 80.5285,285.818 73.5,287.5C 74.5981,286.603 74.5981,285.77 73.5,285C 80.0388,283.214 86.3721,281.047 92.5,278.5 Z"/></g>
<g><path style="opacity:1" fill="#f0b95c" d="M 139.5,273.5 C 138.241,278.049 135.574,281.382 131.5,283.5C 133.817,279.854 136.484,276.52 139.5,273.5 Z"/></g>
<g><path style="opacity:0.992" fill="#eccea8" d="M 197.5,281.5 C 196.5,281.5 195.5,281.5 194.5,281.5C 195.26,279.015 196.26,279.015 197.5,281.5 Z"/></g>
<g><path style="opacity:1" fill="#fd9f03" d="M 194.5,281.5 C 195.5,281.5 196.5,281.5 197.5,281.5C 197.525,284.179 198.858,285.512 201.5,285.5C 201.525,288.179 202.858,289.512 205.5,289.5C 205.525,292.179 206.858,293.512 209.5,293.5C 209.694,295.912 211.027,296.912 213.5,296.5C 214.13,299.705 216.13,301.371 219.5,301.5C 220.833,302.167 222.167,302.833 223.5,303.5C 223.821,305.048 224.821,305.715 226.5,305.5C 226.703,307.044 227.37,308.378 228.5,309.5C 232.479,312.026 236.813,313.359 241.5,313.5C 242.117,313.389 242.617,313.056 243,312.5C 244.271,313.883 245.771,314.883 247.5,315.5C 250.047,316.999 252.714,318.499 255.5,320C 258.146,320.497 260.813,320.664 263.5,320.5C 273.781,322.476 284.448,323.143 295.5,322.5C 296.392,329.791 296.726,337.124 296.5,344.5C 286.161,344.666 275.828,344.5 265.5,344C 256.5,342.236 247.5,340.403 238.5,338.5C 238.167,338.5 237.833,338.5 237.5,338.5C 232.84,333.147 226.84,330.48 219.5,330.5C 217.56,328.596 215.894,326.429 214.5,324C 210.178,322.34 205.845,320.84 201.5,319.5C 200.28,317.718 199.614,315.718 199.5,313.5C 196.673,313.416 194.006,312.75 191.5,311.5C 191.512,308.858 190.179,307.525 187.5,307.5C 187.374,305.8 186.707,304.3 185.5,303C 186.835,301.326 188.169,299.659 189.5,298C 188.978,297.439 188.645,296.772 188.5,296C 191.333,291.493 193.333,286.659 194.5,281.5 Z"/></g>
<g><path style="opacity:1" fill="#efa940" d="M 266.5,290.5 C 259.699,289.676 253.365,287.676 247.5,284.5C 249.92,284.708 252.253,284.374 254.5,283.5C 255.711,284.274 255.711,285.107 254.5,286C 258.61,287.515 262.61,289.015 266.5,290.5 Z"/></g>
<g><path style="opacity:1" fill="#f1ba71" d="M 197.5,281.5 C 199.167,282.5 200.5,283.833 201.5,285.5C 198.858,285.512 197.525,284.179 197.5,281.5 Z"/></g>
<g><path style="opacity:1" fill="#f5b557" d="M 163.5,283.5 C 161.88,287.082 159.547,290.082 156.5,292.5C 156.338,290.473 156.505,288.473 157,286.5C 157.414,286.957 157.914,287.291 158.5,287.5C 159.429,286.311 159.762,284.978 159.5,283.5C 160.833,283.5 162.167,283.5 163.5,283.5 Z"/></g>
<g><path style="opacity:1" fill="#efba62" d="M 131.5,283.5 C 130.455,286.545 128.455,288.545 125.5,289.5C 127.167,287.167 129.167,285.167 131.5,283.5 Z"/></g>
<g><path style="opacity:1" fill="#f2bb6f" d="M 201.5,285.5 C 203.167,286.5 204.5,287.833 205.5,289.5C 202.858,289.512 201.525,288.179 201.5,285.5 Z"/></g>
<g><path style="opacity:1" fill="#eeae4b" d="M 38.5,274.5 C 38.5,279.833 38.5,285.167 38.5,290.5C 45.5,290.5 52.5,290.5 59.5,290.5C 51.9943,291.347 44.3276,292.014 36.5,292.5C 36.6516,286.301 37.3182,280.301 38.5,274.5 Z"/></g>
<g><path style="opacity:1" fill="#e6b061" d="M 293.5,290.5 C 294.043,290.56 294.376,290.893 294.5,291.5C 290.287,292.195 286.121,292.861 282,293.5C 279.534,292.212 277.034,292.212 274.5,293.5C 273.261,293.058 272.261,292.391 271.5,291.5C 278.92,291.797 286.254,291.464 293.5,290.5 Z"/></g>
<g><path style="opacity:1" fill="#f4ba6c" d="M 205.5,289.5 C 207.167,290.5 208.5,291.833 209.5,293.5C 206.858,293.512 205.525,292.179 205.5,289.5 Z"/></g>
<g><path style="opacity:0.988" fill="#efc582" d="M 125.5,289.5 C 123.807,292.19 121.473,294.19 118.5,295.5C 120.219,292.781 122.553,290.781 125.5,289.5 Z"/></g>
<g><path style="opacity:1" fill="#f9b85d" d="M 156.5,293.5 C 154.058,296.729 151.392,299.729 148.5,302.5C 148.5,301.167 148.5,299.833 148.5,298.5C 149.5,298.5 150.5,298.5 151.5,298.5C 151.64,296.876 150.973,295.71 149.5,295C 151.061,294.682 152.228,293.849 153,292.5C 154.011,293.337 155.178,293.67 156.5,293.5 Z"/></g>
<g><path style="opacity:0.992" fill="#efc283" d="M 209.5,293.5 C 210.872,294.512 212.205,295.512 213.5,296.5C 211.027,296.912 209.694,295.912 209.5,293.5 Z"/></g>
<g><path style="opacity:0.996" fill="#f2cc91" d="M 118.5,295.5 C 117.738,297.262 116.404,298.262 114.5,298.5C 115.262,296.738 116.596,295.738 118.5,295.5 Z"/></g>
<g><path style="opacity:1" fill="#f4ab3f" d="M 194.5,281.5 C 193.333,286.659 191.333,291.493 188.5,296C 188.645,296.772 188.978,297.439 189.5,298C 188.169,299.659 186.835,301.326 185.5,303C 186.707,304.3 187.374,305.8 187.5,307.5C 183.994,305.856 182.494,303.189 183,299.5C 187.107,293.605 190.941,287.605 194.5,281.5 Z"/></g>
<g><path style="opacity:0.996" fill="#f8d8af" d="M 114.5,298.5 C 114.027,299.906 113.027,300.573 111.5,300.5C 111.973,299.094 112.973,298.427 114.5,298.5 Z"/></g>
<g><path style="opacity:1" fill="#f8bf71" d="M 213.5,296.5 C 215.54,298.177 217.54,299.844 219.5,301.5C 216.13,301.371 214.13,299.705 213.5,296.5 Z"/></g>
<g><path style="opacity:0.996" fill="#f1d099" d="M 111.5,300.5 C 111.027,301.906 110.027,302.573 108.5,302.5C 108.973,301.094 109.973,300.427 111.5,300.5 Z"/></g>
<g><path style="opacity:0.992" fill="#f0d4ac" d="M 106.5,303.5 C 106.027,304.906 105.027,305.573 103.5,305.5C 103.973,304.094 104.973,303.427 106.5,303.5 Z"/></g>
<g><path style="opacity:0.992" fill="#f4cf98" d="M 223.5,303.5 C 224.71,303.932 225.71,304.599 226.5,305.5C 224.821,305.715 223.821,305.048 223.5,303.5 Z"/></g>
<g><path style="opacity:1" fill="#f7b150" d="M 143.5,307.5 C 138.771,312.561 133.438,316.894 127.5,320.5C 127.343,319.127 127.51,317.793 128,316.5C 129.785,315.76 131.618,315.093 133.5,314.5C 134.731,313.349 134.731,312.183 133.5,311C 136.288,310.274 137.788,308.44 138,305.5C 139.401,307.192 141.234,307.859 143.5,307.5 Z"/></g>
<g><path style="opacity:1" fill="#f1ba6f" d="M 187.5,307.5 C 190.179,307.525 191.512,308.858 191.5,311.5C 189.833,310.5 188.5,309.167 187.5,307.5 Z"/></g>
<g><path style="opacity:1" fill="#f1b34e" d="M 103.5,305.5 C 103.586,306.496 103.252,307.329 102.5,308C 100.061,309.61 97.394,310.444 94.5,310.5C 97.223,308.469 100.223,306.802 103.5,305.5 Z"/></g>
<g><path style="opacity:0.925" fill="#f8d7ad" d="M 92.5,310.5 C 92.0269,311.906 91.0269,312.573 89.5,312.5C 89.9731,311.094 90.9731,310.427 92.5,310.5 Z"/></g>
<g><path style="opacity:1" fill="#f4b14f" d="M 226.5,305.5 C 231.542,308.237 236.542,310.904 241.5,313.5C 236.813,313.359 232.479,312.026 228.5,309.5C 227.37,308.378 226.703,307.044 226.5,305.5 Z"/></g>
<g><path style="opacity:0.996" fill="#f2cd98" d="M 89.5,312.5 C 88.0697,313.537 86.403,314.204 84.5,314.5C 85.6354,312.787 87.302,312.12 89.5,312.5 Z"/></g>
<g><path style="opacity:1" fill="#f1af4a" d="M 191.5,311.5 C 194.006,312.75 196.673,313.416 199.5,313.5C 199.614,315.718 200.28,317.718 201.5,319.5C 197.854,317.183 194.52,314.516 191.5,311.5 Z"/></g>
<g><path style="opacity:0.992" fill="#f1d3ac" d="M 83.5,314.5 C 82.0697,315.537 80.403,316.204 78.5,316.5C 79.6222,315.053 81.1222,314.053 83,313.5C 83.3988,313.728 83.5654,314.062 83.5,314.5 Z"/></g>
<g><path style="opacity:1" fill="#f0d6ab" d="M 77.5,316.5 C 76.0813,317.451 74.4147,317.784 72.5,317.5C 73.8775,316.766 75.3775,316.099 77,315.5C 77.3988,315.728 77.5654,316.062 77.5,316.5 Z"/></g>
<g><path style="opacity:0.004" fill="#f9f0e6" d="M 70.5,318.5 C 68.7839,318.629 67.1172,318.962 65.5,319.5C 66.8786,317.403 68.5453,317.07 70.5,318.5 Z"/></g>
<g><path style="opacity:1" fill="#f3b55c" d="M 265.5,320.5 C 264.833,320.5 264.167,320.5 263.5,320.5C 260.813,320.664 258.146,320.497 255.5,320C 252.714,318.499 250.047,316.999 247.5,315.5C 247.435,315.062 247.601,314.728 248,314.5C 252.395,315.958 256.728,317.625 261,319.5C 262.749,318.447 264.249,318.78 265.5,320.5 Z"/></g>
<g><path style="opacity:1" fill="#e7ae58" d="M 62.5,319.5 C 62.3893,320.117 62.056,320.617 61.5,321C 52.0896,321.193 42.7563,321.693 33.5,322.5C 33.281,321.325 33.6143,320.325 34.5,319.5C 44.3682,320.581 53.7015,320.581 62.5,319.5 Z"/></g>
<g><path style="opacity:1" fill="#f8b75e" d="M 124.5,322.5 C 122.109,324.362 119.442,325.696 116.5,326.5C 117.85,322.905 120.517,321.572 124.5,322.5 Z"/></g>
<g><path style="opacity:1" fill="#ecbf77" d="M 168.5,324.5 C 167.183,324.179 165.849,323.846 164.5,323.5C 162.823,324.187 161.156,324.854 159.5,325.5C 162.226,320.931 165.226,320.598 168.5,324.5 Z"/></g>
<g><path style="opacity:1" fill="#f3a938" d="M 201.5,319.5 C 205.845,320.84 210.178,322.34 214.5,324C 215.894,326.429 217.56,328.596 219.5,330.5C 212.967,327.619 206.967,323.953 201.5,319.5 Z"/></g>
<g><path style="opacity:1" fill="#fc9f09" d="M 168.5,324.5 C 169.219,326.764 169.552,329.097 169.5,331.5C 173.727,332.01 177.394,333.01 180.5,334.5C 181.492,334.328 182.158,334.662 182.5,335.5C 182.821,337.048 183.821,337.715 185.5,337.5C 185.821,339.048 186.821,339.715 188.5,339.5C 189.502,341.011 190.169,342.678 190.5,344.5C 193.206,344.575 195.873,344.908 198.5,345.5C 198.721,346.735 199.388,347.735 200.5,348.5C 176.833,349.833 153.167,349.833 129.5,348.5C 131.188,347.479 132.521,346.145 133.5,344.5C 135.027,344.573 136.027,343.906 136.5,342.5C 138.027,342.573 139.027,341.906 139.5,340.5C 141.632,340.446 142.965,339.446 143.5,337.5C 143.842,336.662 144.508,336.328 145.5,336.5C 147.404,336.262 148.738,335.262 149.5,333.5C 151.404,333.262 152.738,332.262 153.5,330.5C 155.46,328.844 157.46,327.177 159.5,325.5C 161.156,324.854 162.823,324.187 164.5,323.5C 165.849,323.846 167.183,324.179 168.5,324.5 Z"/></g>
<g><path style="opacity:1" fill="#f3b456" d="M 116.5,326.5 C 110.228,331.134 103.228,334.468 95.5,336.5C 100.399,333.042 105.732,330.042 111.5,327.5C 113.045,326.548 114.712,326.215 116.5,326.5 Z"/></g>
<g><path style="opacity:0.996" fill="#f9ca8a" d="M 172.5,328.5 C 173.71,328.932 174.71,329.599 175.5,330.5C 173.821,330.715 172.821,330.048 172.5,328.5 Z"/></g>
<g><path style="opacity:1" fill="#f4ad41" d="M 168.5,324.5 C 170.167,325.5 171.5,326.833 172.5,328.5C 172.821,330.048 173.821,330.715 175.5,330.5C 177.389,331.604 179.055,332.937 180.5,334.5C 177.394,333.01 173.727,332.01 169.5,331.5C 169.552,329.097 169.219,326.764 168.5,324.5 Z"/></g>
<g><path style="opacity:0.827" fill="#fadaad" d="M 153.5,330.5 C 152.738,332.262 151.404,333.262 149.5,333.5C 150.262,331.738 151.596,330.738 153.5,330.5 Z"/></g>
<g><path style="opacity:1" fill="#f2a737" d="M 219.5,330.5 C 226.84,330.48 232.84,333.147 237.5,338.5C 231.006,336.786 225.006,334.12 219.5,330.5 Z"/></g>
<g><path style="opacity:0.835" fill="#f4d9a9" d="M 149.5,333.5 C 148.738,335.262 147.404,336.262 145.5,336.5C 146.262,334.738 147.596,333.738 149.5,333.5 Z"/></g>
<g><path style="opacity:0.992" fill="#f7ce99" d="M 182.5,335.5 C 183.71,335.932 184.71,336.599 185.5,337.5C 183.821,337.715 182.821,337.048 182.5,335.5 Z"/></g>
<g><path style="opacity:1" fill="#efaa43" d="M 95.5,336.5 C 89.232,339.475 82.5654,341.475 75.5,342.5C 81.6925,339.28 88.3592,337.28 95.5,336.5 Z"/></g>
<g><path style="opacity:0.988" fill="#f8d297" d="M 185.5,337.5 C 186.71,337.932 187.71,338.599 188.5,339.5C 186.821,339.715 185.821,339.048 185.5,337.5 Z"/></g>
<g><path style="opacity:0.996" fill="#f6d1a6" d="M 143.5,337.5 C 142.965,339.446 141.632,340.446 139.5,340.5C 140.436,339.026 141.77,338.026 143.5,337.5 Z"/></g>
<g><path style="opacity:0.996" fill="#f7d3a8" d="M 139.5,340.5 C 139.027,341.906 138.027,342.573 136.5,342.5C 136.973,341.094 137.973,340.427 139.5,340.5 Z"/></g>
<g><path style="opacity:0.996" fill="#f3d1a8" d="M 136.5,342.5 C 136.027,343.906 135.027,344.573 133.5,344.5C 133.973,343.094 134.973,342.427 136.5,342.5 Z"/></g>
<g><path style="opacity:1" fill="#f6ba6a" d="M 188.5,339.5 C 191.869,341.515 195.202,343.515 198.5,345.5C 195.873,344.908 193.206,344.575 190.5,344.5C 190.169,342.678 189.502,341.011 188.5,339.5 Z"/></g>
<g><path style="opacity:1" fill="#e9a638" d="M 32.5,339.5 C 32.5,341.167 32.5,342.833 32.5,344.5C 44.8497,344.618 57.1831,344.285 69.5,343.5C 67.0314,344.317 64.3647,344.817 61.5,345C 51.5056,345.5 41.5056,345.666 31.5,345.5C 31.2053,343.265 31.5386,341.265 32.5,339.5 Z"/></g>
<g><path style="opacity:1" fill="#f4ad45" d="M 297.5,333.5 C 297.5,337.5 297.5,341.5 297.5,345.5C 288.5,345.5 279.5,345.5 270.5,345.5C 266.543,345.177 262.71,345.177 259,345.5C 256.467,344.128 253.8,343.128 251,342.5C 250.667,342.833 250.333,343.167 250,343.5C 246.17,341.727 242.336,340.06 238.5,338.5C 247.5,340.403 256.5,342.236 265.5,344C 275.828,344.5 286.161,344.666 296.5,344.5C 296.726,337.124 296.392,329.791 295.5,322.5C 284.448,323.143 273.781,322.476 263.5,320.5C 264.167,320.5 264.833,320.5 265.5,320.5C 275.403,320.919 285.737,320.919 296.5,320.5C 297.295,324.785 297.628,329.119 297.5,333.5 Z"/></g>
<g><path style="opacity:1" fill="#dea645" d="M 297.5,333.5 C 298.224,337.365 298.891,341.365 299.5,345.5C 289.675,346.823 280.008,346.823 270.5,345.5C 279.5,345.5 288.5,345.5 297.5,345.5C 297.5,341.5 297.5,337.5 297.5,333.5 Z"/></g>
<g><path style="opacity:1" fill="#e0a747" d="M 133.5,344.5 C 132.521,346.145 131.188,347.479 129.5,348.5C 153.167,349.833 176.833,349.833 200.5,348.5C 199.388,347.735 198.721,346.735 198.5,345.5C 200.643,347.074 202.976,348.408 205.5,349.5C 178.506,350.667 151.506,350.833 124.5,350C 127.222,347.642 130.222,345.809 133.5,344.5 Z"/></g>
</svg>
